<mxfile host="app.diagrams.net" modified="2023-11-24T18:11:04.675Z" agent="Mozilla/5.0 (Windows NT 10.0; Win64; x64) AppleWebKit/537.36 (KHTML, like Gecko) Chrome/119.0.0.0 Safari/537.36" etag="j1pz5T263nCIMJ1W443U" version="22.1.3" type="google">
  <diagram name="Page-1" id="GEzYdDF1BJsxNQrEVvO7">
    <mxGraphModel grid="1" page="1" gridSize="10" guides="1" tooltips="1" connect="1" arrows="1" fold="1" pageScale="1" pageWidth="850" pageHeight="1100" math="0" shadow="0">
      <root>
        <mxCell id="0" />
        <mxCell id="1" parent="0" />
        <mxCell id="rP0GA_UCQ7L0hZzCrlnX-43" style="edgeStyle=none;rounded=0;orthogonalLoop=1;jettySize=auto;html=1;exitX=0;exitY=1;exitDx=0;exitDy=0;" edge="1" parent="1" source="HwZLsTvkrUzx8jBDkVq--1">
          <mxGeometry relative="1" as="geometry">
            <mxPoint x="-550" y="-220" as="targetPoint" />
          </mxGeometry>
        </mxCell>
        <mxCell id="rP0GA_UCQ7L0hZzCrlnX-46" style="edgeStyle=none;rounded=0;orthogonalLoop=1;jettySize=auto;html=1;exitX=0;exitY=1;exitDx=0;exitDy=0;entryX=1;entryY=0.5;entryDx=0;entryDy=0;" edge="1" parent="1" source="HwZLsTvkrUzx8jBDkVq--1" target="HwZLsTvkrUzx8jBDkVq--203">
          <mxGeometry relative="1" as="geometry" />
        </mxCell>
        <mxCell id="HwZLsTvkrUzx8jBDkVq--1" value="" style="rounded=0;whiteSpace=wrap;html=1;" vertex="1" parent="1">
          <mxGeometry x="-130" y="-405" width="120" height="50" as="geometry" />
        </mxCell>
        <mxCell id="rP0GA_UCQ7L0hZzCrlnX-42" style="edgeStyle=none;rounded=0;orthogonalLoop=1;jettySize=auto;html=1;entryX=0.5;entryY=0;entryDx=0;entryDy=0;exitX=0.5;exitY=1;exitDx=0;exitDy=0;" edge="1" parent="1" source="HwZLsTvkrUzx8jBDkVq--1" target="HwZLsTvkrUzx8jBDkVq--189">
          <mxGeometry relative="1" as="geometry" />
        </mxCell>
        <mxCell id="HwZLsTvkrUzx8jBDkVq--2" value="STUDENT" style="text;html=1;strokeColor=none;fillColor=none;align=center;verticalAlign=middle;whiteSpace=wrap;rounded=0;" vertex="1" parent="1">
          <mxGeometry x="-100" y="-395" width="60" height="30" as="geometry" />
        </mxCell>
        <mxCell id="HwZLsTvkrUzx8jBDkVq--3" value="&lt;u&gt;user_id&lt;/u&gt;" style="ellipse;whiteSpace=wrap;html=1;" vertex="1" parent="1">
          <mxGeometry x="-200" y="-475" width="70" height="30" as="geometry" />
        </mxCell>
        <mxCell id="HwZLsTvkrUzx8jBDkVq--4" value="user_name" style="ellipse;whiteSpace=wrap;html=1;" vertex="1" parent="1">
          <mxGeometry x="-110" y="-475" width="70" height="30" as="geometry" />
        </mxCell>
        <mxCell id="HwZLsTvkrUzx8jBDkVq--5" value="first_name" style="ellipse;whiteSpace=wrap;html=1;" vertex="1" parent="1">
          <mxGeometry x="-170" y="-525" width="80" height="40" as="geometry" />
        </mxCell>
        <mxCell id="HwZLsTvkrUzx8jBDkVq--6" value="last_name" style="ellipse;whiteSpace=wrap;html=1;" vertex="1" parent="1">
          <mxGeometry x="-70" y="-525" width="80" height="35" as="geometry" />
        </mxCell>
        <mxCell id="HwZLsTvkrUzx8jBDkVq--7" value="dob" style="ellipse;whiteSpace=wrap;html=1;" vertex="1" parent="1">
          <mxGeometry x="-20" y="-475" width="60" height="30" as="geometry" />
        </mxCell>
        <mxCell id="HwZLsTvkrUzx8jBDkVq--8" value="" style="endArrow=none;html=1;rounded=0;exitX=0;exitY=0;exitDx=0;exitDy=0;entryX=0;entryY=1;entryDx=0;entryDy=0;" edge="1" parent="1" source="HwZLsTvkrUzx8jBDkVq--4" target="HwZLsTvkrUzx8jBDkVq--5">
          <mxGeometry width="50" height="50" relative="1" as="geometry">
            <mxPoint x="190" y="-345" as="sourcePoint" />
            <mxPoint x="240" y="-395" as="targetPoint" />
          </mxGeometry>
        </mxCell>
        <mxCell id="HwZLsTvkrUzx8jBDkVq--9" value="" style="endArrow=none;html=1;rounded=0;exitX=1;exitY=0;exitDx=0;exitDy=0;entryX=1;entryY=1;entryDx=0;entryDy=0;" edge="1" parent="1" source="HwZLsTvkrUzx8jBDkVq--4" target="HwZLsTvkrUzx8jBDkVq--6">
          <mxGeometry width="50" height="50" relative="1" as="geometry">
            <mxPoint x="190" y="-345" as="sourcePoint" />
            <mxPoint x="240" y="-395" as="targetPoint" />
          </mxGeometry>
        </mxCell>
        <mxCell id="HwZLsTvkrUzx8jBDkVq--10" value="" style="endArrow=none;html=1;rounded=0;exitX=0.25;exitY=0;exitDx=0;exitDy=0;entryX=1;entryY=1;entryDx=0;entryDy=0;" edge="1" parent="1" source="HwZLsTvkrUzx8jBDkVq--1" target="HwZLsTvkrUzx8jBDkVq--3">
          <mxGeometry width="50" height="50" relative="1" as="geometry">
            <mxPoint x="190" y="-345" as="sourcePoint" />
            <mxPoint x="240" y="-395" as="targetPoint" />
          </mxGeometry>
        </mxCell>
        <mxCell id="HwZLsTvkrUzx8jBDkVq--11" value="" style="endArrow=none;html=1;rounded=0;exitX=0.5;exitY=0;exitDx=0;exitDy=0;entryX=0.5;entryY=1;entryDx=0;entryDy=0;" edge="1" parent="1" source="HwZLsTvkrUzx8jBDkVq--1" target="HwZLsTvkrUzx8jBDkVq--4">
          <mxGeometry width="50" height="50" relative="1" as="geometry">
            <mxPoint x="190" y="-345" as="sourcePoint" />
            <mxPoint x="240" y="-395" as="targetPoint" />
          </mxGeometry>
        </mxCell>
        <mxCell id="HwZLsTvkrUzx8jBDkVq--12" value="" style="endArrow=none;html=1;rounded=0;exitX=1;exitY=0;exitDx=0;exitDy=0;entryX=0.5;entryY=1;entryDx=0;entryDy=0;" edge="1" parent="1" source="HwZLsTvkrUzx8jBDkVq--1" target="HwZLsTvkrUzx8jBDkVq--7">
          <mxGeometry width="50" height="50" relative="1" as="geometry">
            <mxPoint x="190" y="-345" as="sourcePoint" />
            <mxPoint x="240" y="-395" as="targetPoint" />
          </mxGeometry>
        </mxCell>
        <mxCell id="HwZLsTvkrUzx8jBDkVq--13" value="user_phoneno" style="ellipse;whiteSpace=wrap;html=1;" vertex="1" parent="1">
          <mxGeometry x="60" y="-460" width="100" height="40" as="geometry" />
        </mxCell>
        <mxCell id="HwZLsTvkrUzx8jBDkVq--14" value="" style="endArrow=none;html=1;rounded=0;exitX=1;exitY=0.5;exitDx=0;exitDy=0;entryX=0;entryY=1;entryDx=0;entryDy=0;" edge="1" parent="1" source="HwZLsTvkrUzx8jBDkVq--1" target="HwZLsTvkrUzx8jBDkVq--13">
          <mxGeometry width="50" height="50" relative="1" as="geometry">
            <mxPoint x="190" y="-345" as="sourcePoint" />
            <mxPoint x="240" y="-395" as="targetPoint" />
          </mxGeometry>
        </mxCell>
        <mxCell id="HwZLsTvkrUzx8jBDkVq--15" value="emailid" style="ellipse;whiteSpace=wrap;html=1;" vertex="1" parent="1">
          <mxGeometry x="80" y="-405" width="70" height="30" as="geometry" />
        </mxCell>
        <mxCell id="HwZLsTvkrUzx8jBDkVq--16" value="" style="endArrow=none;html=1;rounded=0;exitX=1;exitY=0.75;exitDx=0;exitDy=0;entryX=0;entryY=0.5;entryDx=0;entryDy=0;" edge="1" parent="1" source="HwZLsTvkrUzx8jBDkVq--1" target="HwZLsTvkrUzx8jBDkVq--15">
          <mxGeometry width="50" height="50" relative="1" as="geometry">
            <mxPoint x="190" y="-345" as="sourcePoint" />
            <mxPoint x="240" y="-395" as="targetPoint" />
          </mxGeometry>
        </mxCell>
        <mxCell id="HwZLsTvkrUzx8jBDkVq--17" value="password" style="ellipse;whiteSpace=wrap;html=1;" vertex="1" parent="1">
          <mxGeometry x="30" y="-505" width="90" height="30" as="geometry" />
        </mxCell>
        <mxCell id="HwZLsTvkrUzx8jBDkVq--18" value="" style="endArrow=none;html=1;rounded=0;exitX=1;exitY=0.25;exitDx=0;exitDy=0;entryX=0.5;entryY=1;entryDx=0;entryDy=0;" edge="1" parent="1" source="HwZLsTvkrUzx8jBDkVq--1" target="HwZLsTvkrUzx8jBDkVq--17">
          <mxGeometry width="50" height="50" relative="1" as="geometry">
            <mxPoint x="190" y="-345" as="sourcePoint" />
            <mxPoint x="240" y="-395" as="targetPoint" />
          </mxGeometry>
        </mxCell>
        <mxCell id="HwZLsTvkrUzx8jBDkVq--19" value="joining_year" style="ellipse;whiteSpace=wrap;html=1;" vertex="1" parent="1">
          <mxGeometry x="-340" y="-490" width="100" height="30" as="geometry" />
        </mxCell>
        <mxCell id="HwZLsTvkrUzx8jBDkVq--20" value="passout_year" style="ellipse;whiteSpace=wrap;html=1;" vertex="1" parent="1">
          <mxGeometry x="-302.5" y="-455" width="95" height="40" as="geometry" />
        </mxCell>
        <mxCell id="HwZLsTvkrUzx8jBDkVq--21" value="branch" style="ellipse;whiteSpace=wrap;html=1;" vertex="1" parent="1">
          <mxGeometry x="-310" y="-405" width="65" height="30" as="geometry" />
        </mxCell>
        <mxCell id="HwZLsTvkrUzx8jBDkVq--22" value="division" style="ellipse;whiteSpace=wrap;html=1;" vertex="1" parent="1">
          <mxGeometry x="-365" y="-380" width="60" height="30" as="geometry" />
        </mxCell>
        <mxCell id="HwZLsTvkrUzx8jBDkVq--23" value="gender" style="ellipse;whiteSpace=wrap;html=1;" vertex="1" parent="1">
          <mxGeometry x="70" y="-360" width="90" height="20" as="geometry" />
        </mxCell>
        <mxCell id="HwZLsTvkrUzx8jBDkVq--24" value="" style="endArrow=none;html=1;rounded=0;exitX=1;exitY=0.5;exitDx=0;exitDy=0;entryX=0;entryY=0;entryDx=0;entryDy=0;" edge="1" parent="1" source="HwZLsTvkrUzx8jBDkVq--19" target="HwZLsTvkrUzx8jBDkVq--1">
          <mxGeometry width="50" height="50" relative="1" as="geometry">
            <mxPoint x="50" y="-345" as="sourcePoint" />
            <mxPoint x="100" y="-395" as="targetPoint" />
          </mxGeometry>
        </mxCell>
        <mxCell id="HwZLsTvkrUzx8jBDkVq--25" value="" style="endArrow=none;html=1;rounded=0;exitX=1;exitY=0.5;exitDx=0;exitDy=0;entryX=0;entryY=0.25;entryDx=0;entryDy=0;" edge="1" parent="1" source="HwZLsTvkrUzx8jBDkVq--20" target="HwZLsTvkrUzx8jBDkVq--1">
          <mxGeometry width="50" height="50" relative="1" as="geometry">
            <mxPoint x="-200" y="-440" as="sourcePoint" />
            <mxPoint x="-160" y="-365" as="targetPoint" />
          </mxGeometry>
        </mxCell>
        <mxCell id="HwZLsTvkrUzx8jBDkVq--26" value="" style="endArrow=none;html=1;rounded=0;exitX=1;exitY=0.5;exitDx=0;exitDy=0;entryX=0;entryY=0.5;entryDx=0;entryDy=0;" edge="1" parent="1" source="HwZLsTvkrUzx8jBDkVq--21" target="HwZLsTvkrUzx8jBDkVq--1">
          <mxGeometry width="50" height="50" relative="1" as="geometry">
            <mxPoint x="-190" y="-430" as="sourcePoint" />
            <mxPoint x="-120" y="-382" as="targetPoint" />
          </mxGeometry>
        </mxCell>
        <mxCell id="HwZLsTvkrUzx8jBDkVq--27" value="" style="endArrow=none;html=1;rounded=0;exitX=1;exitY=0.5;exitDx=0;exitDy=0;entryX=0;entryY=0.75;entryDx=0;entryDy=0;" edge="1" parent="1" source="HwZLsTvkrUzx8jBDkVq--22" target="HwZLsTvkrUzx8jBDkVq--1">
          <mxGeometry width="50" height="50" relative="1" as="geometry">
            <mxPoint x="-180" y="-420" as="sourcePoint" />
            <mxPoint x="-110" y="-372" as="targetPoint" />
          </mxGeometry>
        </mxCell>
        <mxCell id="HwZLsTvkrUzx8jBDkVq--28" value="" style="endArrow=none;html=1;rounded=0;exitX=0;exitY=0.5;exitDx=0;exitDy=0;entryX=1;entryY=1;entryDx=0;entryDy=0;" edge="1" parent="1" source="HwZLsTvkrUzx8jBDkVq--23" target="HwZLsTvkrUzx8jBDkVq--1">
          <mxGeometry width="50" height="50" relative="1" as="geometry">
            <mxPoint x="-170" y="-410" as="sourcePoint" />
            <mxPoint x="-100" y="-362" as="targetPoint" />
          </mxGeometry>
        </mxCell>
        <mxCell id="HwZLsTvkrUzx8jBDkVq--29" value="photo" style="ellipse;whiteSpace=wrap;html=1;" vertex="1" parent="1">
          <mxGeometry x="35" y="-235" width="70" height="30" as="geometry" />
        </mxCell>
        <mxCell id="HwZLsTvkrUzx8jBDkVq--30" value="date_joined" style="ellipse;whiteSpace=wrap;html=1;" vertex="1" parent="1">
          <mxGeometry x="75" y="-325" width="70" height="30" as="geometry" />
        </mxCell>
        <mxCell id="HwZLsTvkrUzx8jBDkVq--31" value="is_active" style="ellipse;whiteSpace=wrap;html=1;" vertex="1" parent="1">
          <mxGeometry x="70" y="-285" width="80" height="30" as="geometry" />
        </mxCell>
        <mxCell id="HwZLsTvkrUzx8jBDkVq--32" value="" style="endArrow=none;html=1;rounded=0;exitX=0;exitY=0;exitDx=0;exitDy=0;entryX=0.5;entryY=1;entryDx=0;entryDy=0;" edge="1" parent="1" source="HwZLsTvkrUzx8jBDkVq--29" target="HwZLsTvkrUzx8jBDkVq--1">
          <mxGeometry width="50" height="50" relative="1" as="geometry">
            <mxPoint x="-160" y="-400" as="sourcePoint" />
            <mxPoint x="-90" y="-352" as="targetPoint" />
          </mxGeometry>
        </mxCell>
        <mxCell id="HwZLsTvkrUzx8jBDkVq--33" value="" style="endArrow=none;html=1;rounded=0;exitX=0;exitY=0.5;exitDx=0;exitDy=0;" edge="1" parent="1" source="HwZLsTvkrUzx8jBDkVq--31">
          <mxGeometry width="50" height="50" relative="1" as="geometry">
            <mxPoint x="-150" y="-390" as="sourcePoint" />
            <mxPoint x="-50" y="-355" as="targetPoint" />
          </mxGeometry>
        </mxCell>
        <mxCell id="HwZLsTvkrUzx8jBDkVq--34" value="" style="endArrow=none;html=1;rounded=0;exitX=0.75;exitY=1;exitDx=0;exitDy=0;entryX=0;entryY=0.5;entryDx=0;entryDy=0;" edge="1" parent="1" source="HwZLsTvkrUzx8jBDkVq--1" target="HwZLsTvkrUzx8jBDkVq--30">
          <mxGeometry width="50" height="50" relative="1" as="geometry">
            <mxPoint x="-140" y="-380" as="sourcePoint" />
            <mxPoint x="-70" y="-332" as="targetPoint" />
          </mxGeometry>
        </mxCell>
        <mxCell id="rP0GA_UCQ7L0hZzCrlnX-47" style="edgeStyle=none;rounded=0;orthogonalLoop=1;jettySize=auto;html=1;entryX=0;entryY=0.5;entryDx=0;entryDy=0;" edge="1" parent="1" source="HwZLsTvkrUzx8jBDkVq--35" target="HwZLsTvkrUzx8jBDkVq--171">
          <mxGeometry relative="1" as="geometry" />
        </mxCell>
        <mxCell id="HwZLsTvkrUzx8jBDkVq--35" value="" style="rounded=0;whiteSpace=wrap;html=1;" vertex="1" parent="1">
          <mxGeometry x="512.5" y="-275" width="120" height="50" as="geometry" />
        </mxCell>
        <mxCell id="HwZLsTvkrUzx8jBDkVq--36" value="ORGANISATION" style="text;html=1;strokeColor=none;fillColor=none;align=center;verticalAlign=middle;whiteSpace=wrap;rounded=0;" vertex="1" parent="1">
          <mxGeometry x="537.5" y="-265" width="65" height="30" as="geometry" />
        </mxCell>
        <mxCell id="HwZLsTvkrUzx8jBDkVq--37" value="&lt;u&gt;org_id&lt;/u&gt;" style="ellipse;whiteSpace=wrap;html=1;" vertex="1" parent="1">
          <mxGeometry x="442.5" y="-345" width="70" height="30" as="geometry" />
        </mxCell>
        <mxCell id="HwZLsTvkrUzx8jBDkVq--38" value="org_name" style="ellipse;whiteSpace=wrap;html=1;" vertex="1" parent="1">
          <mxGeometry x="532.5" y="-345" width="70" height="30" as="geometry" />
        </mxCell>
        <mxCell id="HwZLsTvkrUzx8jBDkVq--39" value="username" style="ellipse;whiteSpace=wrap;html=1;" vertex="1" parent="1">
          <mxGeometry x="622.5" y="-345" width="60" height="30" as="geometry" />
        </mxCell>
        <mxCell id="HwZLsTvkrUzx8jBDkVq--40" value="" style="endArrow=none;html=1;rounded=0;exitX=0.25;exitY=0;exitDx=0;exitDy=0;entryX=1;entryY=1;entryDx=0;entryDy=0;" edge="1" parent="1" source="HwZLsTvkrUzx8jBDkVq--35" target="HwZLsTvkrUzx8jBDkVq--37">
          <mxGeometry width="50" height="50" relative="1" as="geometry">
            <mxPoint x="832.5" y="-215" as="sourcePoint" />
            <mxPoint x="882.5" y="-265" as="targetPoint" />
          </mxGeometry>
        </mxCell>
        <mxCell id="HwZLsTvkrUzx8jBDkVq--41" value="" style="endArrow=none;html=1;rounded=0;exitX=0.5;exitY=0;exitDx=0;exitDy=0;entryX=0.5;entryY=1;entryDx=0;entryDy=0;" edge="1" parent="1" source="HwZLsTvkrUzx8jBDkVq--35" target="HwZLsTvkrUzx8jBDkVq--38">
          <mxGeometry width="50" height="50" relative="1" as="geometry">
            <mxPoint x="832.5" y="-215" as="sourcePoint" />
            <mxPoint x="882.5" y="-265" as="targetPoint" />
          </mxGeometry>
        </mxCell>
        <mxCell id="HwZLsTvkrUzx8jBDkVq--42" value="" style="endArrow=none;html=1;rounded=0;exitX=1;exitY=0;exitDx=0;exitDy=0;entryX=0.5;entryY=1;entryDx=0;entryDy=0;" edge="1" parent="1" source="HwZLsTvkrUzx8jBDkVq--35" target="HwZLsTvkrUzx8jBDkVq--39">
          <mxGeometry width="50" height="50" relative="1" as="geometry">
            <mxPoint x="832.5" y="-215" as="sourcePoint" />
            <mxPoint x="882.5" y="-265" as="targetPoint" />
          </mxGeometry>
        </mxCell>
        <mxCell id="HwZLsTvkrUzx8jBDkVq--43" value="about" style="ellipse;whiteSpace=wrap;html=1;" vertex="1" parent="1">
          <mxGeometry x="702.5" y="-330" width="75" height="25" as="geometry" />
        </mxCell>
        <mxCell id="HwZLsTvkrUzx8jBDkVq--44" value="" style="endArrow=none;html=1;rounded=0;exitX=1;exitY=0.5;exitDx=0;exitDy=0;entryX=0;entryY=1;entryDx=0;entryDy=0;" edge="1" parent="1" source="HwZLsTvkrUzx8jBDkVq--35" target="HwZLsTvkrUzx8jBDkVq--43">
          <mxGeometry width="50" height="50" relative="1" as="geometry">
            <mxPoint x="832.5" y="-215" as="sourcePoint" />
            <mxPoint x="882.5" y="-265" as="targetPoint" />
          </mxGeometry>
        </mxCell>
        <mxCell id="HwZLsTvkrUzx8jBDkVq--45" value="emailid" style="ellipse;whiteSpace=wrap;html=1;" vertex="1" parent="1">
          <mxGeometry x="717.5" y="-290" width="70" height="30" as="geometry" />
        </mxCell>
        <mxCell id="HwZLsTvkrUzx8jBDkVq--46" value="" style="endArrow=none;html=1;rounded=0;exitX=1;exitY=0.75;exitDx=0;exitDy=0;entryX=0;entryY=0.5;entryDx=0;entryDy=0;" edge="1" parent="1" source="HwZLsTvkrUzx8jBDkVq--35" target="HwZLsTvkrUzx8jBDkVq--45">
          <mxGeometry width="50" height="50" relative="1" as="geometry">
            <mxPoint x="832.5" y="-215" as="sourcePoint" />
            <mxPoint x="882.5" y="-265" as="targetPoint" />
          </mxGeometry>
        </mxCell>
        <mxCell id="HwZLsTvkrUzx8jBDkVq--47" value="password" style="ellipse;whiteSpace=wrap;html=1;" vertex="1" parent="1">
          <mxGeometry x="672.5" y="-375" width="90" height="30" as="geometry" />
        </mxCell>
        <mxCell id="HwZLsTvkrUzx8jBDkVq--48" value="" style="endArrow=none;html=1;rounded=0;exitX=1;exitY=0.25;exitDx=0;exitDy=0;entryX=0.5;entryY=1;entryDx=0;entryDy=0;" edge="1" parent="1" source="HwZLsTvkrUzx8jBDkVq--35" target="HwZLsTvkrUzx8jBDkVq--47">
          <mxGeometry width="50" height="50" relative="1" as="geometry">
            <mxPoint x="832.5" y="-215" as="sourcePoint" />
            <mxPoint x="882.5" y="-265" as="targetPoint" />
          </mxGeometry>
        </mxCell>
        <mxCell id="HwZLsTvkrUzx8jBDkVq--49" value="website_link" style="ellipse;whiteSpace=wrap;html=1;" vertex="1" parent="1">
          <mxGeometry x="342.5" y="-265" width="90" height="30" as="geometry" />
        </mxCell>
        <mxCell id="HwZLsTvkrUzx8jBDkVq--50" value="" style="endArrow=none;html=1;rounded=0;exitX=1;exitY=0.5;exitDx=0;exitDy=0;entryX=0;entryY=0.5;entryDx=0;entryDy=0;" edge="1" parent="1" source="HwZLsTvkrUzx8jBDkVq--49" target="HwZLsTvkrUzx8jBDkVq--35">
          <mxGeometry width="50" height="50" relative="1" as="geometry">
            <mxPoint x="472.5" y="-280" as="sourcePoint" />
            <mxPoint x="542.5" y="-232" as="targetPoint" />
          </mxGeometry>
        </mxCell>
        <mxCell id="HwZLsTvkrUzx8jBDkVq--51" value="photo" style="ellipse;whiteSpace=wrap;html=1;" vertex="1" parent="1">
          <mxGeometry x="397.5" y="-305" width="70" height="30" as="geometry" />
        </mxCell>
        <mxCell id="HwZLsTvkrUzx8jBDkVq--52" value="instagram_link" style="ellipse;whiteSpace=wrap;html=1;" vertex="1" parent="1">
          <mxGeometry x="352.5" y="-225" width="90" height="40" as="geometry" />
        </mxCell>
        <mxCell id="HwZLsTvkrUzx8jBDkVq--53" value="linkedin_link" style="ellipse;whiteSpace=wrap;html=1;" vertex="1" parent="1">
          <mxGeometry x="737.5" y="-255" width="80" height="30" as="geometry" />
        </mxCell>
        <mxCell id="HwZLsTvkrUzx8jBDkVq--54" value="" style="endArrow=none;html=1;rounded=0;exitX=1;exitY=0.5;exitDx=0;exitDy=0;entryX=0;entryY=0;entryDx=0;entryDy=0;" edge="1" parent="1" source="HwZLsTvkrUzx8jBDkVq--51" target="HwZLsTvkrUzx8jBDkVq--35">
          <mxGeometry width="50" height="50" relative="1" as="geometry">
            <mxPoint x="482.5" y="-270" as="sourcePoint" />
            <mxPoint x="552.5" y="-222" as="targetPoint" />
          </mxGeometry>
        </mxCell>
        <mxCell id="HwZLsTvkrUzx8jBDkVq--55" value="" style="endArrow=none;html=1;rounded=0;exitX=0;exitY=0.5;exitDx=0;exitDy=0;entryX=1;entryY=1;entryDx=0;entryDy=0;" edge="1" parent="1" source="HwZLsTvkrUzx8jBDkVq--53" target="HwZLsTvkrUzx8jBDkVq--35">
          <mxGeometry width="50" height="50" relative="1" as="geometry">
            <mxPoint x="492.5" y="-260" as="sourcePoint" />
            <mxPoint x="562.5" y="-212" as="targetPoint" />
          </mxGeometry>
        </mxCell>
        <mxCell id="HwZLsTvkrUzx8jBDkVq--56" value="" style="endArrow=none;html=1;rounded=0;exitX=0;exitY=0.75;exitDx=0;exitDy=0;entryX=1;entryY=0.5;entryDx=0;entryDy=0;" edge="1" parent="1" source="HwZLsTvkrUzx8jBDkVq--35" target="HwZLsTvkrUzx8jBDkVq--52">
          <mxGeometry width="50" height="50" relative="1" as="geometry">
            <mxPoint x="502.5" y="-250" as="sourcePoint" />
            <mxPoint x="572.5" y="-202" as="targetPoint" />
          </mxGeometry>
        </mxCell>
        <mxCell id="HwZLsTvkrUzx8jBDkVq--57" value="" style="rounded=0;whiteSpace=wrap;html=1;" vertex="1" parent="1">
          <mxGeometry x="1150" y="285" width="120" height="50" as="geometry" />
        </mxCell>
        <mxCell id="HwZLsTvkrUzx8jBDkVq--58" value="EVENT_LISTING" style="text;html=1;strokeColor=none;fillColor=none;align=center;verticalAlign=middle;whiteSpace=wrap;rounded=0;" vertex="1" parent="1">
          <mxGeometry x="1170" y="295" width="80" height="30" as="geometry" />
        </mxCell>
        <mxCell id="HwZLsTvkrUzx8jBDkVq--59" value="&lt;u&gt;event_id&lt;/u&gt;" style="ellipse;whiteSpace=wrap;html=1;" vertex="1" parent="1">
          <mxGeometry x="1140" y="140" width="70" height="30" as="geometry" />
        </mxCell>
        <mxCell id="HwZLsTvkrUzx8jBDkVq--60" value="event_name" style="ellipse;whiteSpace=wrap;html=1;" vertex="1" parent="1">
          <mxGeometry x="1215" y="170" width="70" height="30" as="geometry" />
        </mxCell>
        <mxCell id="HwZLsTvkrUzx8jBDkVq--61" value="start_date" style="ellipse;whiteSpace=wrap;html=1;" vertex="1" parent="1">
          <mxGeometry x="1260" y="215" width="60" height="30" as="geometry" />
        </mxCell>
        <mxCell id="HwZLsTvkrUzx8jBDkVq--62" value="" style="endArrow=none;html=1;rounded=0;exitX=0.25;exitY=0;exitDx=0;exitDy=0;entryX=1;entryY=1;entryDx=0;entryDy=0;" edge="1" parent="1" source="HwZLsTvkrUzx8jBDkVq--57" target="HwZLsTvkrUzx8jBDkVq--59">
          <mxGeometry width="50" height="50" relative="1" as="geometry">
            <mxPoint x="1470" y="345" as="sourcePoint" />
            <mxPoint x="1520" y="295" as="targetPoint" />
          </mxGeometry>
        </mxCell>
        <mxCell id="HwZLsTvkrUzx8jBDkVq--63" value="" style="endArrow=none;html=1;rounded=0;exitX=0.5;exitY=0;exitDx=0;exitDy=0;entryX=0.5;entryY=1;entryDx=0;entryDy=0;" edge="1" parent="1" source="HwZLsTvkrUzx8jBDkVq--57" target="HwZLsTvkrUzx8jBDkVq--60">
          <mxGeometry width="50" height="50" relative="1" as="geometry">
            <mxPoint x="1470" y="345" as="sourcePoint" />
            <mxPoint x="1520" y="295" as="targetPoint" />
          </mxGeometry>
        </mxCell>
        <mxCell id="HwZLsTvkrUzx8jBDkVq--64" value="" style="endArrow=none;html=1;rounded=0;exitX=1;exitY=0;exitDx=0;exitDy=0;entryX=0.5;entryY=1;entryDx=0;entryDy=0;" edge="1" parent="1" source="HwZLsTvkrUzx8jBDkVq--57" target="HwZLsTvkrUzx8jBDkVq--61">
          <mxGeometry width="50" height="50" relative="1" as="geometry">
            <mxPoint x="1470" y="345" as="sourcePoint" />
            <mxPoint x="1520" y="295" as="targetPoint" />
          </mxGeometry>
        </mxCell>
        <mxCell id="HwZLsTvkrUzx8jBDkVq--65" value="start_time" style="ellipse;whiteSpace=wrap;html=1;" vertex="1" parent="1">
          <mxGeometry x="1340" y="230" width="75" height="25" as="geometry" />
        </mxCell>
        <mxCell id="HwZLsTvkrUzx8jBDkVq--66" value="" style="endArrow=none;html=1;rounded=0;exitX=1;exitY=0.5;exitDx=0;exitDy=0;entryX=0;entryY=1;entryDx=0;entryDy=0;" edge="1" parent="1" source="HwZLsTvkrUzx8jBDkVq--57" target="HwZLsTvkrUzx8jBDkVq--65">
          <mxGeometry width="50" height="50" relative="1" as="geometry">
            <mxPoint x="1470" y="345" as="sourcePoint" />
            <mxPoint x="1520" y="295" as="targetPoint" />
          </mxGeometry>
        </mxCell>
        <mxCell id="HwZLsTvkrUzx8jBDkVq--67" value="end_time" style="ellipse;whiteSpace=wrap;html=1;" vertex="1" parent="1">
          <mxGeometry x="1355" y="270" width="70" height="30" as="geometry" />
        </mxCell>
        <mxCell id="HwZLsTvkrUzx8jBDkVq--68" value="" style="endArrow=none;html=1;rounded=0;exitX=1;exitY=0.75;exitDx=0;exitDy=0;entryX=0;entryY=0.5;entryDx=0;entryDy=0;" edge="1" parent="1" source="HwZLsTvkrUzx8jBDkVq--57" target="HwZLsTvkrUzx8jBDkVq--67">
          <mxGeometry width="50" height="50" relative="1" as="geometry">
            <mxPoint x="1470" y="345" as="sourcePoint" />
            <mxPoint x="1520" y="295" as="targetPoint" />
          </mxGeometry>
        </mxCell>
        <mxCell id="HwZLsTvkrUzx8jBDkVq--69" value="end_date" style="ellipse;whiteSpace=wrap;html=1;" vertex="1" parent="1">
          <mxGeometry x="1310" y="185" width="90" height="30" as="geometry" />
        </mxCell>
        <mxCell id="HwZLsTvkrUzx8jBDkVq--70" value="" style="endArrow=none;html=1;rounded=0;exitX=1;exitY=0.25;exitDx=0;exitDy=0;entryX=0.5;entryY=1;entryDx=0;entryDy=0;" edge="1" parent="1" source="HwZLsTvkrUzx8jBDkVq--57" target="HwZLsTvkrUzx8jBDkVq--69">
          <mxGeometry width="50" height="50" relative="1" as="geometry">
            <mxPoint x="1470" y="345" as="sourcePoint" />
            <mxPoint x="1520" y="295" as="targetPoint" />
          </mxGeometry>
        </mxCell>
        <mxCell id="HwZLsTvkrUzx8jBDkVq--71" value="poster" style="ellipse;whiteSpace=wrap;html=1;" vertex="1" parent="1">
          <mxGeometry x="1000" y="250" width="90" height="30" as="geometry" />
        </mxCell>
        <mxCell id="HwZLsTvkrUzx8jBDkVq--72" value="" style="endArrow=none;html=1;rounded=0;exitX=1;exitY=0.5;exitDx=0;exitDy=0;entryX=0;entryY=0.5;entryDx=0;entryDy=0;" edge="1" parent="1" source="HwZLsTvkrUzx8jBDkVq--71" target="HwZLsTvkrUzx8jBDkVq--57">
          <mxGeometry width="50" height="50" relative="1" as="geometry">
            <mxPoint x="1110" y="280" as="sourcePoint" />
            <mxPoint x="1180" y="328" as="targetPoint" />
          </mxGeometry>
        </mxCell>
        <mxCell id="HwZLsTvkrUzx8jBDkVq--73" value="location" style="ellipse;whiteSpace=wrap;html=1;" vertex="1" parent="1">
          <mxGeometry x="1045" y="390" width="70" height="30" as="geometry" />
        </mxCell>
        <mxCell id="HwZLsTvkrUzx8jBDkVq--74" value="registeration_link" style="ellipse;whiteSpace=wrap;html=1;" vertex="1" parent="1">
          <mxGeometry x="965" y="285" width="100" height="35" as="geometry" />
        </mxCell>
        <mxCell id="HwZLsTvkrUzx8jBDkVq--75" value="description" style="ellipse;whiteSpace=wrap;html=1;" vertex="1" parent="1">
          <mxGeometry x="1375" y="305" width="80" height="30" as="geometry" />
        </mxCell>
        <mxCell id="HwZLsTvkrUzx8jBDkVq--76" value="" style="endArrow=none;html=1;rounded=0;exitX=1;exitY=0.5;exitDx=0;exitDy=0;entryX=0.417;entryY=0.998;entryDx=0;entryDy=0;entryPerimeter=0;" edge="1" parent="1" source="HwZLsTvkrUzx8jBDkVq--73" target="HwZLsTvkrUzx8jBDkVq--57">
          <mxGeometry width="50" height="50" relative="1" as="geometry">
            <mxPoint x="1120" y="290" as="sourcePoint" />
            <mxPoint x="1190" y="338" as="targetPoint" />
          </mxGeometry>
        </mxCell>
        <mxCell id="HwZLsTvkrUzx8jBDkVq--77" value="" style="endArrow=none;html=1;rounded=0;exitX=0;exitY=0.5;exitDx=0;exitDy=0;entryX=1;entryY=1;entryDx=0;entryDy=0;" edge="1" parent="1" source="HwZLsTvkrUzx8jBDkVq--75" target="HwZLsTvkrUzx8jBDkVq--57">
          <mxGeometry width="50" height="50" relative="1" as="geometry">
            <mxPoint x="1130" y="300" as="sourcePoint" />
            <mxPoint x="1200" y="348" as="targetPoint" />
          </mxGeometry>
        </mxCell>
        <mxCell id="HwZLsTvkrUzx8jBDkVq--78" value="" style="endArrow=none;html=1;rounded=0;exitX=0;exitY=0.75;exitDx=0;exitDy=0;entryX=1;entryY=0.5;entryDx=0;entryDy=0;" edge="1" parent="1" source="HwZLsTvkrUzx8jBDkVq--57" target="HwZLsTvkrUzx8jBDkVq--74">
          <mxGeometry width="50" height="50" relative="1" as="geometry">
            <mxPoint x="1140" y="310" as="sourcePoint" />
            <mxPoint x="1210" y="358" as="targetPoint" />
          </mxGeometry>
        </mxCell>
        <mxCell id="HwZLsTvkrUzx8jBDkVq--79" value="org_id(fk)" style="ellipse;whiteSpace=wrap;html=1;" vertex="1" parent="1">
          <mxGeometry x="1380" y="345" width="70" height="30" as="geometry" />
        </mxCell>
        <mxCell id="HwZLsTvkrUzx8jBDkVq--80" value="no_ppl_interested" style="ellipse;whiteSpace=wrap;html=1;" vertex="1" parent="1">
          <mxGeometry x="995" y="330" width="100" height="35" as="geometry" />
        </mxCell>
        <mxCell id="HwZLsTvkrUzx8jBDkVq--81" value="" style="endArrow=none;html=1;rounded=0;exitX=1;exitY=0.5;exitDx=0;exitDy=0;entryX=0.25;entryY=1;entryDx=0;entryDy=0;" edge="1" parent="1" source="HwZLsTvkrUzx8jBDkVq--80" target="HwZLsTvkrUzx8jBDkVq--57">
          <mxGeometry width="50" height="50" relative="1" as="geometry">
            <mxPoint x="1160" y="360" as="sourcePoint" />
            <mxPoint x="1210" y="310" as="targetPoint" />
          </mxGeometry>
        </mxCell>
        <mxCell id="HwZLsTvkrUzx8jBDkVq--82" value="" style="endArrow=none;html=1;rounded=0;entryX=0;entryY=0.5;entryDx=0;entryDy=0;exitX=0.75;exitY=1;exitDx=0;exitDy=0;" edge="1" parent="1" source="HwZLsTvkrUzx8jBDkVq--57" target="HwZLsTvkrUzx8jBDkVq--79">
          <mxGeometry width="50" height="50" relative="1" as="geometry">
            <mxPoint x="1160" y="360" as="sourcePoint" />
            <mxPoint x="1210" y="310" as="targetPoint" />
          </mxGeometry>
        </mxCell>
        <mxCell id="HwZLsTvkrUzx8jBDkVq--83" value="" style="rounded=0;whiteSpace=wrap;html=1;" vertex="1" parent="1">
          <mxGeometry x="440" y="215" width="120" height="50" as="geometry" />
        </mxCell>
        <mxCell id="HwZLsTvkrUzx8jBDkVq--84" value="RESTAURANT" style="text;html=1;strokeColor=none;fillColor=none;align=center;verticalAlign=middle;whiteSpace=wrap;rounded=0;" vertex="1" parent="1">
          <mxGeometry x="460" y="225" width="65" height="30" as="geometry" />
        </mxCell>
        <mxCell id="HwZLsTvkrUzx8jBDkVq--85" value="&lt;u&gt;rest_id&lt;/u&gt;" style="ellipse;whiteSpace=wrap;html=1;" vertex="1" parent="1">
          <mxGeometry x="370" y="145" width="70" height="30" as="geometry" />
        </mxCell>
        <mxCell id="HwZLsTvkrUzx8jBDkVq--86" value="rest_name" style="ellipse;whiteSpace=wrap;html=1;" vertex="1" parent="1">
          <mxGeometry x="690" y="275" width="70" height="30" as="geometry" />
        </mxCell>
        <mxCell id="HwZLsTvkrUzx8jBDkVq--87" value="location" style="ellipse;whiteSpace=wrap;html=1;" vertex="1" parent="1">
          <mxGeometry x="550" y="145" width="60" height="30" as="geometry" />
        </mxCell>
        <mxCell id="HwZLsTvkrUzx8jBDkVq--88" value="" style="endArrow=none;html=1;rounded=0;exitX=0.25;exitY=0;exitDx=0;exitDy=0;entryX=1;entryY=1;entryDx=0;entryDy=0;" edge="1" parent="1" source="HwZLsTvkrUzx8jBDkVq--83" target="HwZLsTvkrUzx8jBDkVq--85">
          <mxGeometry width="50" height="50" relative="1" as="geometry">
            <mxPoint x="760" y="275" as="sourcePoint" />
            <mxPoint x="810" y="225" as="targetPoint" />
          </mxGeometry>
        </mxCell>
        <mxCell id="HwZLsTvkrUzx8jBDkVq--89" value="" style="endArrow=none;html=1;rounded=0;entryX=1;entryY=0.5;entryDx=0;entryDy=0;" edge="1" parent="1" target="HwZLsTvkrUzx8jBDkVq--86">
          <mxGeometry width="50" height="50" relative="1" as="geometry">
            <mxPoint x="560" y="260" as="sourcePoint" />
            <mxPoint x="810" y="225" as="targetPoint" />
          </mxGeometry>
        </mxCell>
        <mxCell id="HwZLsTvkrUzx8jBDkVq--90" value="" style="endArrow=none;html=1;rounded=0;exitX=1;exitY=0;exitDx=0;exitDy=0;entryX=0.5;entryY=1;entryDx=0;entryDy=0;" edge="1" parent="1" source="HwZLsTvkrUzx8jBDkVq--83" target="HwZLsTvkrUzx8jBDkVq--87">
          <mxGeometry width="50" height="50" relative="1" as="geometry">
            <mxPoint x="760" y="275" as="sourcePoint" />
            <mxPoint x="810" y="225" as="targetPoint" />
          </mxGeometry>
        </mxCell>
        <mxCell id="HwZLsTvkrUzx8jBDkVq--91" value="overall_rating" style="ellipse;whiteSpace=wrap;html=1;" vertex="1" parent="1">
          <mxGeometry x="665" y="160" width="95" height="25" as="geometry" />
        </mxCell>
        <mxCell id="HwZLsTvkrUzx8jBDkVq--92" value="" style="endArrow=none;html=1;rounded=0;exitX=1;exitY=0.5;exitDx=0;exitDy=0;entryX=0;entryY=1;entryDx=0;entryDy=0;" edge="1" parent="1" source="HwZLsTvkrUzx8jBDkVq--83" target="HwZLsTvkrUzx8jBDkVq--91">
          <mxGeometry width="50" height="50" relative="1" as="geometry">
            <mxPoint x="760" y="275" as="sourcePoint" />
            <mxPoint x="810" y="225" as="targetPoint" />
          </mxGeometry>
        </mxCell>
        <mxCell id="HwZLsTvkrUzx8jBDkVq--93" value="no_of_recommendations" style="ellipse;whiteSpace=wrap;html=1;" vertex="1" parent="1">
          <mxGeometry x="645" y="200" width="165" height="30" as="geometry" />
        </mxCell>
        <mxCell id="HwZLsTvkrUzx8jBDkVq--94" value="" style="endArrow=none;html=1;rounded=0;exitX=1;exitY=0.75;exitDx=0;exitDy=0;entryX=0;entryY=0.5;entryDx=0;entryDy=0;" edge="1" parent="1" source="HwZLsTvkrUzx8jBDkVq--83" target="HwZLsTvkrUzx8jBDkVq--93">
          <mxGeometry width="50" height="50" relative="1" as="geometry">
            <mxPoint x="760" y="275" as="sourcePoint" />
            <mxPoint x="810" y="225" as="targetPoint" />
          </mxGeometry>
        </mxCell>
        <mxCell id="HwZLsTvkrUzx8jBDkVq--95" value="overall_price_per_head" style="ellipse;whiteSpace=wrap;html=1;" vertex="1" parent="1">
          <mxGeometry x="600" y="115" width="140" height="30" as="geometry" />
        </mxCell>
        <mxCell id="HwZLsTvkrUzx8jBDkVq--96" value="" style="endArrow=none;html=1;rounded=0;exitX=1;exitY=0.25;exitDx=0;exitDy=0;entryX=0.5;entryY=1;entryDx=0;entryDy=0;" edge="1" parent="1" source="HwZLsTvkrUzx8jBDkVq--83" target="HwZLsTvkrUzx8jBDkVq--95">
          <mxGeometry width="50" height="50" relative="1" as="geometry">
            <mxPoint x="760" y="275" as="sourcePoint" />
            <mxPoint x="810" y="225" as="targetPoint" />
          </mxGeometry>
        </mxCell>
        <mxCell id="HwZLsTvkrUzx8jBDkVq--97" value="photo" style="ellipse;whiteSpace=wrap;html=1;" vertex="1" parent="1">
          <mxGeometry x="325" y="185" width="70" height="30" as="geometry" />
        </mxCell>
        <mxCell id="HwZLsTvkrUzx8jBDkVq--98" value="" style="endArrow=none;html=1;rounded=0;exitX=1;exitY=0.5;exitDx=0;exitDy=0;entryX=0;entryY=0;entryDx=0;entryDy=0;" edge="1" parent="1" source="HwZLsTvkrUzx8jBDkVq--97" target="HwZLsTvkrUzx8jBDkVq--83">
          <mxGeometry width="50" height="50" relative="1" as="geometry">
            <mxPoint x="410" y="220" as="sourcePoint" />
            <mxPoint x="480" y="268" as="targetPoint" />
          </mxGeometry>
        </mxCell>
        <mxCell id="rP0GA_UCQ7L0hZzCrlnX-48" style="edgeStyle=none;rounded=0;orthogonalLoop=1;jettySize=auto;html=1;exitX=1;exitY=0.75;exitDx=0;exitDy=0;entryX=0;entryY=0.5;entryDx=0;entryDy=0;" edge="1" parent="1" source="HwZLsTvkrUzx8jBDkVq--99" target="HwZLsTvkrUzx8jBDkVq--192">
          <mxGeometry relative="1" as="geometry" />
        </mxCell>
        <mxCell id="HwZLsTvkrUzx8jBDkVq--99" value="" style="rounded=0;whiteSpace=wrap;html=1;" vertex="1" parent="1">
          <mxGeometry x="-180" y="215" width="120" height="50" as="geometry" />
        </mxCell>
        <mxCell id="HwZLsTvkrUzx8jBDkVq--100" value="RECOMMENDATION" style="text;html=1;strokeColor=none;fillColor=none;align=center;verticalAlign=middle;whiteSpace=wrap;rounded=0;" vertex="1" parent="1">
          <mxGeometry x="-160" y="225" width="80" height="30" as="geometry" />
        </mxCell>
        <mxCell id="HwZLsTvkrUzx8jBDkVq--101" value="&lt;u&gt;rec_id&lt;/u&gt;" style="ellipse;whiteSpace=wrap;html=1;" vertex="1" parent="1">
          <mxGeometry x="-230" y="115" width="70" height="30" as="geometry" />
        </mxCell>
        <mxCell id="HwZLsTvkrUzx8jBDkVq--102" value="food_rating" style="ellipse;whiteSpace=wrap;html=1;" vertex="1" parent="1">
          <mxGeometry x="-280" y="315" width="70" height="30" as="geometry" />
        </mxCell>
        <mxCell id="HwZLsTvkrUzx8jBDkVq--103" value="service_rating" style="ellipse;whiteSpace=wrap;html=1;" vertex="1" parent="1">
          <mxGeometry x="-5" y="320" width="85" height="30" as="geometry" />
        </mxCell>
        <mxCell id="HwZLsTvkrUzx8jBDkVq--104" value="" style="endArrow=none;html=1;rounded=0;exitX=0.25;exitY=0;exitDx=0;exitDy=0;entryX=1;entryY=1;entryDx=0;entryDy=0;" edge="1" parent="1" source="HwZLsTvkrUzx8jBDkVq--99" target="HwZLsTvkrUzx8jBDkVq--101">
          <mxGeometry width="50" height="50" relative="1" as="geometry">
            <mxPoint x="140" y="275" as="sourcePoint" />
            <mxPoint x="190" y="225" as="targetPoint" />
          </mxGeometry>
        </mxCell>
        <mxCell id="HwZLsTvkrUzx8jBDkVq--105" value="" style="endArrow=none;html=1;rounded=0;exitX=0.25;exitY=1;exitDx=0;exitDy=0;entryX=1;entryY=0;entryDx=0;entryDy=0;" edge="1" parent="1" source="HwZLsTvkrUzx8jBDkVq--99" target="HwZLsTvkrUzx8jBDkVq--102">
          <mxGeometry width="50" height="50" relative="1" as="geometry">
            <mxPoint x="140" y="275" as="sourcePoint" />
            <mxPoint x="190" y="225" as="targetPoint" />
          </mxGeometry>
        </mxCell>
        <mxCell id="HwZLsTvkrUzx8jBDkVq--106" value="" style="endArrow=none;html=1;rounded=0;exitX=0.5;exitY=1;exitDx=0;exitDy=0;entryX=0;entryY=0;entryDx=0;entryDy=0;" edge="1" parent="1" source="HwZLsTvkrUzx8jBDkVq--99" target="HwZLsTvkrUzx8jBDkVq--103">
          <mxGeometry width="50" height="50" relative="1" as="geometry">
            <mxPoint x="140" y="275" as="sourcePoint" />
            <mxPoint x="190" y="225" as="targetPoint" />
          </mxGeometry>
        </mxCell>
        <mxCell id="HwZLsTvkrUzx8jBDkVq--107" style="edgeStyle=orthogonalEdgeStyle;rounded=0;orthogonalLoop=1;jettySize=auto;html=1;exitX=1;exitY=0.5;exitDx=0;exitDy=0;" edge="1" parent="1" source="HwZLsTvkrUzx8jBDkVq--108">
          <mxGeometry relative="1" as="geometry">
            <mxPoint x="135" y="170" as="targetPoint" />
          </mxGeometry>
        </mxCell>
        <mxCell id="HwZLsTvkrUzx8jBDkVq--108" value="avg_user_training" style="ellipse;whiteSpace=wrap;html=1;" vertex="1" parent="1">
          <mxGeometry x="35" y="160" width="120" height="25" as="geometry" />
        </mxCell>
        <mxCell id="HwZLsTvkrUzx8jBDkVq--109" value="" style="endArrow=none;html=1;rounded=0;exitX=1;exitY=0.5;exitDx=0;exitDy=0;entryX=0;entryY=1;entryDx=0;entryDy=0;" edge="1" parent="1" source="HwZLsTvkrUzx8jBDkVq--99" target="HwZLsTvkrUzx8jBDkVq--108">
          <mxGeometry width="50" height="50" relative="1" as="geometry">
            <mxPoint x="140" y="275" as="sourcePoint" />
            <mxPoint x="190" y="225" as="targetPoint" />
          </mxGeometry>
        </mxCell>
        <mxCell id="HwZLsTvkrUzx8jBDkVq--110" value="user_avg_price_per_head" style="ellipse;whiteSpace=wrap;html=1;" vertex="1" parent="1">
          <mxGeometry x="-80" y="375" width="160" height="30" as="geometry" />
        </mxCell>
        <mxCell id="HwZLsTvkrUzx8jBDkVq--111" value="" style="endArrow=none;html=1;rounded=0;exitX=0.401;exitY=1.044;exitDx=0;exitDy=0;entryX=0.5;entryY=0;entryDx=0;entryDy=0;exitPerimeter=0;" edge="1" parent="1" source="HwZLsTvkrUzx8jBDkVq--99" target="HwZLsTvkrUzx8jBDkVq--118">
          <mxGeometry width="50" height="50" relative="1" as="geometry">
            <mxPoint x="140" y="275" as="sourcePoint" />
            <mxPoint x="25" y="215" as="targetPoint" />
          </mxGeometry>
        </mxCell>
        <mxCell id="HwZLsTvkrUzx8jBDkVq--112" value="ambience_rating" style="ellipse;whiteSpace=wrap;html=1;" vertex="1" parent="1">
          <mxGeometry x="-5" y="115" width="100" height="30" as="geometry" />
        </mxCell>
        <mxCell id="HwZLsTvkrUzx8jBDkVq--113" value="" style="endArrow=none;html=1;rounded=0;exitX=1;exitY=0.25;exitDx=0;exitDy=0;entryX=0.5;entryY=1;entryDx=0;entryDy=0;" edge="1" parent="1" source="HwZLsTvkrUzx8jBDkVq--99" target="HwZLsTvkrUzx8jBDkVq--112">
          <mxGeometry width="50" height="50" relative="1" as="geometry">
            <mxPoint x="140" y="275" as="sourcePoint" />
            <mxPoint x="190" y="225" as="targetPoint" />
          </mxGeometry>
        </mxCell>
        <mxCell id="HwZLsTvkrUzx8jBDkVq--114" value="image" style="ellipse;whiteSpace=wrap;html=1;" vertex="1" parent="1">
          <mxGeometry x="-330" y="180" width="90" height="30" as="geometry" />
        </mxCell>
        <mxCell id="HwZLsTvkrUzx8jBDkVq--115" value="" style="endArrow=none;html=1;rounded=0;exitX=1;exitY=0.5;exitDx=0;exitDy=0;entryX=0;entryY=0.5;entryDx=0;entryDy=0;" edge="1" parent="1" source="HwZLsTvkrUzx8jBDkVq--114" target="HwZLsTvkrUzx8jBDkVq--99">
          <mxGeometry width="50" height="50" relative="1" as="geometry">
            <mxPoint x="-220" y="210" as="sourcePoint" />
            <mxPoint x="-150" y="258" as="targetPoint" />
          </mxGeometry>
        </mxCell>
        <mxCell id="HwZLsTvkrUzx8jBDkVq--116" value="description" style="ellipse;whiteSpace=wrap;html=1;" vertex="1" parent="1">
          <mxGeometry x="-280" y="145" width="70" height="30" as="geometry" />
        </mxCell>
        <mxCell id="HwZLsTvkrUzx8jBDkVq--117" value="res_id(fk)" style="ellipse;whiteSpace=wrap;html=1;" vertex="1" parent="1">
          <mxGeometry x="-365" y="215" width="100" height="35" as="geometry" />
        </mxCell>
        <mxCell id="HwZLsTvkrUzx8jBDkVq--118" value="top_recommendation" style="ellipse;whiteSpace=wrap;html=1;" vertex="1" parent="1">
          <mxGeometry x="-220" y="350" width="140" height="30" as="geometry" />
        </mxCell>
        <mxCell id="HwZLsTvkrUzx8jBDkVq--119" value="" style="endArrow=none;html=1;rounded=0;exitX=1;exitY=0.5;exitDx=0;exitDy=0;entryX=0;entryY=0;entryDx=0;entryDy=0;" edge="1" parent="1" source="HwZLsTvkrUzx8jBDkVq--116" target="HwZLsTvkrUzx8jBDkVq--99">
          <mxGeometry width="50" height="50" relative="1" as="geometry">
            <mxPoint x="-210" y="220" as="sourcePoint" />
            <mxPoint x="-140" y="268" as="targetPoint" />
          </mxGeometry>
        </mxCell>
        <mxCell id="HwZLsTvkrUzx8jBDkVq--120" value="" style="endArrow=none;html=1;rounded=0;exitX=0.5;exitY=0;exitDx=0;exitDy=0;entryX=0.5;entryY=1;entryDx=0;entryDy=0;" edge="1" parent="1" source="HwZLsTvkrUzx8jBDkVq--110" target="HwZLsTvkrUzx8jBDkVq--99">
          <mxGeometry width="50" height="50" relative="1" as="geometry">
            <mxPoint x="45" y="250" as="sourcePoint" />
            <mxPoint x="-130" y="278" as="targetPoint" />
          </mxGeometry>
        </mxCell>
        <mxCell id="HwZLsTvkrUzx8jBDkVq--121" value="" style="endArrow=none;html=1;rounded=0;exitX=0;exitY=0.75;exitDx=0;exitDy=0;entryX=1;entryY=0.5;entryDx=0;entryDy=0;" edge="1" parent="1" source="HwZLsTvkrUzx8jBDkVq--99">
          <mxGeometry width="50" height="50" relative="1" as="geometry">
            <mxPoint x="-190" y="240" as="sourcePoint" />
            <mxPoint x="-265" y="232.5" as="targetPoint" />
          </mxGeometry>
        </mxCell>
        <mxCell id="HwZLsTvkrUzx8jBDkVq--122" value="org_id(fk)" style="ellipse;whiteSpace=wrap;html=1;" vertex="1" parent="1">
          <mxGeometry x="50" y="275" width="70" height="30" as="geometry" />
        </mxCell>
        <mxCell id="HwZLsTvkrUzx8jBDkVq--123" value="owner_id(fk)" style="ellipse;whiteSpace=wrap;html=1;" vertex="1" parent="1">
          <mxGeometry x="-345" y="265" width="80" height="35" as="geometry" />
        </mxCell>
        <mxCell id="HwZLsTvkrUzx8jBDkVq--124" value="" style="endArrow=none;html=1;rounded=0;exitX=1;exitY=0.5;exitDx=0;exitDy=0;entryX=0;entryY=1;entryDx=0;entryDy=0;" edge="1" parent="1" source="HwZLsTvkrUzx8jBDkVq--123" target="HwZLsTvkrUzx8jBDkVq--99">
          <mxGeometry width="50" height="50" relative="1" as="geometry">
            <mxPoint x="-170" y="290" as="sourcePoint" />
            <mxPoint x="-120" y="240" as="targetPoint" />
          </mxGeometry>
        </mxCell>
        <mxCell id="HwZLsTvkrUzx8jBDkVq--125" value="" style="endArrow=none;html=1;rounded=0;entryX=0;entryY=0.5;entryDx=0;entryDy=0;exitX=0.75;exitY=1;exitDx=0;exitDy=0;" edge="1" parent="1" source="HwZLsTvkrUzx8jBDkVq--99" target="HwZLsTvkrUzx8jBDkVq--122">
          <mxGeometry width="50" height="50" relative="1" as="geometry">
            <mxPoint x="-170" y="290" as="sourcePoint" />
            <mxPoint x="-120" y="240" as="targetPoint" />
          </mxGeometry>
        </mxCell>
        <mxCell id="HwZLsTvkrUzx8jBDkVq--126" value="" style="rounded=0;whiteSpace=wrap;html=1;" vertex="1" parent="1">
          <mxGeometry x="-832.5" y="-12.5" width="120" height="50" as="geometry" />
        </mxCell>
        <mxCell id="rP0GA_UCQ7L0hZzCrlnX-45" style="edgeStyle=none;rounded=0;orthogonalLoop=1;jettySize=auto;html=1;entryX=0.5;entryY=1;entryDx=0;entryDy=0;" edge="1" parent="1" target="HwZLsTvkrUzx8jBDkVq--199">
          <mxGeometry relative="1" as="geometry">
            <mxPoint x="-800" y="-180" as="targetPoint" />
            <mxPoint x="-770" y="-10" as="sourcePoint" />
          </mxGeometry>
        </mxCell>
        <mxCell id="HwZLsTvkrUzx8jBDkVq--127" value="Ride_Booking" style="text;html=1;strokeColor=none;fillColor=none;align=center;verticalAlign=middle;whiteSpace=wrap;rounded=0;" vertex="1" parent="1">
          <mxGeometry x="-807.5" y="-2.5" width="65" height="30" as="geometry" />
        </mxCell>
        <mxCell id="HwZLsTvkrUzx8jBDkVq--128" value="&lt;u&gt;booking_id&lt;/u&gt;" style="ellipse;whiteSpace=wrap;html=1;" vertex="1" parent="1">
          <mxGeometry x="-902.5" y="-82.5" width="70" height="30" as="geometry" />
        </mxCell>
        <mxCell id="HwZLsTvkrUzx8jBDkVq--129" value="ride_id(fk)" style="ellipse;whiteSpace=wrap;html=1;" vertex="1" parent="1">
          <mxGeometry x="-875" y="-140" width="70" height="30" as="geometry" />
        </mxCell>
        <mxCell id="HwZLsTvkrUzx8jBDkVq--130" value="user_id(fk)" style="ellipse;whiteSpace=wrap;html=1;" vertex="1" parent="1">
          <mxGeometry x="-902.5" y="90" width="60" height="30" as="geometry" />
        </mxCell>
        <mxCell id="HwZLsTvkrUzx8jBDkVq--131" value="" style="endArrow=none;html=1;rounded=0;exitX=0.25;exitY=0;exitDx=0;exitDy=0;entryX=1;entryY=1;entryDx=0;entryDy=0;" edge="1" parent="1" source="HwZLsTvkrUzx8jBDkVq--126" target="HwZLsTvkrUzx8jBDkVq--128">
          <mxGeometry width="50" height="50" relative="1" as="geometry">
            <mxPoint x="-512.5" y="47.5" as="sourcePoint" />
            <mxPoint x="-462.5" y="-2.5" as="targetPoint" />
          </mxGeometry>
        </mxCell>
        <mxCell id="HwZLsTvkrUzx8jBDkVq--132" value="" style="endArrow=none;html=1;rounded=0;exitX=0.5;exitY=0;exitDx=0;exitDy=0;entryX=0.5;entryY=1;entryDx=0;entryDy=0;" edge="1" parent="1" source="HwZLsTvkrUzx8jBDkVq--126" target="HwZLsTvkrUzx8jBDkVq--129">
          <mxGeometry width="50" height="50" relative="1" as="geometry">
            <mxPoint x="-512.5" y="47.5" as="sourcePoint" />
            <mxPoint x="-462.5" y="-2.5" as="targetPoint" />
          </mxGeometry>
        </mxCell>
        <mxCell id="HwZLsTvkrUzx8jBDkVq--133" value="" style="endArrow=none;html=1;rounded=0;entryX=1;entryY=0;entryDx=0;entryDy=0;" edge="1" parent="1" target="HwZLsTvkrUzx8jBDkVq--130">
          <mxGeometry width="50" height="50" relative="1" as="geometry">
            <mxPoint x="-770" y="40" as="sourcePoint" />
            <mxPoint x="-462.5" y="-2.5" as="targetPoint" />
          </mxGeometry>
        </mxCell>
        <mxCell id="HwZLsTvkrUzx8jBDkVq--134" value="booking_date" style="ellipse;whiteSpace=wrap;html=1;" vertex="1" parent="1">
          <mxGeometry x="-990" y="45" width="95" height="25" as="geometry" />
        </mxCell>
        <mxCell id="HwZLsTvkrUzx8jBDkVq--135" value="" style="endArrow=none;html=1;rounded=0;entryX=1;entryY=0;entryDx=0;entryDy=0;exitX=0;exitY=0.75;exitDx=0;exitDy=0;" edge="1" parent="1" source="HwZLsTvkrUzx8jBDkVq--126" target="HwZLsTvkrUzx8jBDkVq--134">
          <mxGeometry width="50" height="50" relative="1" as="geometry">
            <mxPoint x="-840" y="39" as="sourcePoint" />
            <mxPoint x="-462.5" y="-2.5" as="targetPoint" />
          </mxGeometry>
        </mxCell>
        <mxCell id="HwZLsTvkrUzx8jBDkVq--136" value="booking_status" style="ellipse;whiteSpace=wrap;html=1;" vertex="1" parent="1">
          <mxGeometry x="-990" y="-37.5" width="90" height="30" as="geometry" />
        </mxCell>
        <mxCell id="HwZLsTvkrUzx8jBDkVq--137" value="" style="endArrow=none;html=1;rounded=0;exitX=0;exitY=0.5;exitDx=0;exitDy=0;entryX=1;entryY=0.5;entryDx=0;entryDy=0;" edge="1" parent="1" source="HwZLsTvkrUzx8jBDkVq--126" target="HwZLsTvkrUzx8jBDkVq--136">
          <mxGeometry width="50" height="50" relative="1" as="geometry">
            <mxPoint x="-512.5" y="47.5" as="sourcePoint" />
            <mxPoint x="-462.5" y="-2.5" as="targetPoint" />
          </mxGeometry>
        </mxCell>
        <mxCell id="HwZLsTvkrUzx8jBDkVq--138" value="" style="rounded=0;whiteSpace=wrap;html=1;" vertex="1" parent="1">
          <mxGeometry x="-815" y="-420" width="120" height="50" as="geometry" />
        </mxCell>
        <mxCell id="HwZLsTvkrUzx8jBDkVq--139" value="RideListing" style="text;html=1;strokeColor=none;fillColor=none;align=center;verticalAlign=middle;whiteSpace=wrap;rounded=0;" vertex="1" parent="1">
          <mxGeometry x="-795" y="-410" width="80" height="30" as="geometry" />
        </mxCell>
        <mxCell id="HwZLsTvkrUzx8jBDkVq--140" value="&lt;u&gt;ride_id&lt;/u&gt;" style="ellipse;whiteSpace=wrap;html=1;" vertex="1" parent="1">
          <mxGeometry x="-865" y="-520" width="70" height="30" as="geometry" />
        </mxCell>
        <mxCell id="HwZLsTvkrUzx8jBDkVq--141" value="frm_location" style="ellipse;whiteSpace=wrap;html=1;" vertex="1" parent="1">
          <mxGeometry x="-795" y="-490" width="75" height="30" as="geometry" />
        </mxCell>
        <mxCell id="HwZLsTvkrUzx8jBDkVq--142" value="start_date" style="ellipse;whiteSpace=wrap;html=1;" vertex="1" parent="1">
          <mxGeometry x="-705" y="-490" width="60" height="30" as="geometry" />
        </mxCell>
        <mxCell id="HwZLsTvkrUzx8jBDkVq--143" value="" style="endArrow=none;html=1;rounded=0;exitX=0.25;exitY=0;exitDx=0;exitDy=0;entryX=1;entryY=1;entryDx=0;entryDy=0;" edge="1" parent="1" source="HwZLsTvkrUzx8jBDkVq--138" target="HwZLsTvkrUzx8jBDkVq--140">
          <mxGeometry width="50" height="50" relative="1" as="geometry">
            <mxPoint x="-495" y="-360" as="sourcePoint" />
            <mxPoint x="-445" y="-410" as="targetPoint" />
          </mxGeometry>
        </mxCell>
        <mxCell id="HwZLsTvkrUzx8jBDkVq--144" value="" style="endArrow=none;html=1;rounded=0;exitX=0.5;exitY=0;exitDx=0;exitDy=0;entryX=0.5;entryY=1;entryDx=0;entryDy=0;" edge="1" parent="1" source="HwZLsTvkrUzx8jBDkVq--138" target="HwZLsTvkrUzx8jBDkVq--141">
          <mxGeometry width="50" height="50" relative="1" as="geometry">
            <mxPoint x="-495" y="-360" as="sourcePoint" />
            <mxPoint x="-445" y="-410" as="targetPoint" />
          </mxGeometry>
        </mxCell>
        <mxCell id="HwZLsTvkrUzx8jBDkVq--145" value="" style="endArrow=none;html=1;rounded=0;exitX=1;exitY=0;exitDx=0;exitDy=0;entryX=0.5;entryY=1;entryDx=0;entryDy=0;" edge="1" parent="1" source="HwZLsTvkrUzx8jBDkVq--138" target="HwZLsTvkrUzx8jBDkVq--142">
          <mxGeometry width="50" height="50" relative="1" as="geometry">
            <mxPoint x="-495" y="-360" as="sourcePoint" />
            <mxPoint x="-445" y="-410" as="targetPoint" />
          </mxGeometry>
        </mxCell>
        <mxCell id="HwZLsTvkrUzx8jBDkVq--146" value="start_time" style="ellipse;whiteSpace=wrap;html=1;" vertex="1" parent="1">
          <mxGeometry x="-625" y="-475" width="75" height="25" as="geometry" />
        </mxCell>
        <mxCell id="HwZLsTvkrUzx8jBDkVq--147" value="" style="endArrow=none;html=1;rounded=0;exitX=1;exitY=0.5;exitDx=0;exitDy=0;entryX=0;entryY=1;entryDx=0;entryDy=0;" edge="1" parent="1" source="HwZLsTvkrUzx8jBDkVq--138" target="HwZLsTvkrUzx8jBDkVq--146">
          <mxGeometry width="50" height="50" relative="1" as="geometry">
            <mxPoint x="-495" y="-360" as="sourcePoint" />
            <mxPoint x="-445" y="-410" as="targetPoint" />
          </mxGeometry>
        </mxCell>
        <mxCell id="HwZLsTvkrUzx8jBDkVq--148" value="end_time" style="ellipse;whiteSpace=wrap;html=1;" vertex="1" parent="1">
          <mxGeometry x="-610" y="-435" width="70" height="30" as="geometry" />
        </mxCell>
        <mxCell id="HwZLsTvkrUzx8jBDkVq--149" value="" style="endArrow=none;html=1;rounded=0;exitX=1;exitY=0.75;exitDx=0;exitDy=0;entryX=0;entryY=0.5;entryDx=0;entryDy=0;" edge="1" parent="1" source="HwZLsTvkrUzx8jBDkVq--138" target="HwZLsTvkrUzx8jBDkVq--148">
          <mxGeometry width="50" height="50" relative="1" as="geometry">
            <mxPoint x="-495" y="-360" as="sourcePoint" />
            <mxPoint x="-445" y="-410" as="targetPoint" />
          </mxGeometry>
        </mxCell>
        <mxCell id="HwZLsTvkrUzx8jBDkVq--150" value="end_date" style="ellipse;whiteSpace=wrap;html=1;" vertex="1" parent="1">
          <mxGeometry x="-655" y="-520" width="90" height="30" as="geometry" />
        </mxCell>
        <mxCell id="HwZLsTvkrUzx8jBDkVq--151" value="" style="endArrow=none;html=1;rounded=0;exitX=1;exitY=0.25;exitDx=0;exitDy=0;entryX=0.5;entryY=1;entryDx=0;entryDy=0;" edge="1" parent="1" source="HwZLsTvkrUzx8jBDkVq--138" target="HwZLsTvkrUzx8jBDkVq--150">
          <mxGeometry width="50" height="50" relative="1" as="geometry">
            <mxPoint x="-495" y="-360" as="sourcePoint" />
            <mxPoint x="-445" y="-410" as="targetPoint" />
          </mxGeometry>
        </mxCell>
        <mxCell id="HwZLsTvkrUzx8jBDkVq--152" value="vehicle_name" style="ellipse;whiteSpace=wrap;html=1;" vertex="1" parent="1">
          <mxGeometry x="-965" y="-455" width="90" height="30" as="geometry" />
        </mxCell>
        <mxCell id="HwZLsTvkrUzx8jBDkVq--153" value="" style="endArrow=none;html=1;rounded=0;exitX=1;exitY=0.5;exitDx=0;exitDy=0;entryX=0;entryY=0.5;entryDx=0;entryDy=0;" edge="1" parent="1" source="HwZLsTvkrUzx8jBDkVq--152" target="HwZLsTvkrUzx8jBDkVq--138">
          <mxGeometry width="50" height="50" relative="1" as="geometry">
            <mxPoint x="-855" y="-425" as="sourcePoint" />
            <mxPoint x="-785" y="-377" as="targetPoint" />
          </mxGeometry>
        </mxCell>
        <mxCell id="HwZLsTvkrUzx8jBDkVq--154" value="to_location" style="ellipse;whiteSpace=wrap;html=1;" vertex="1" parent="1">
          <mxGeometry x="-915" y="-490" width="70" height="30" as="geometry" />
        </mxCell>
        <mxCell id="HwZLsTvkrUzx8jBDkVq--155" value="vehicle_type" style="ellipse;whiteSpace=wrap;html=1;" vertex="1" parent="1">
          <mxGeometry x="-590" y="-400" width="80" height="30" as="geometry" />
        </mxCell>
        <mxCell id="HwZLsTvkrUzx8jBDkVq--156" value="" style="endArrow=none;html=1;rounded=0;exitX=1;exitY=0.5;exitDx=0;exitDy=0;entryX=0;entryY=0;entryDx=0;entryDy=0;" edge="1" parent="1" source="HwZLsTvkrUzx8jBDkVq--154" target="HwZLsTvkrUzx8jBDkVq--138">
          <mxGeometry width="50" height="50" relative="1" as="geometry">
            <mxPoint x="-845" y="-415" as="sourcePoint" />
            <mxPoint x="-775" y="-367" as="targetPoint" />
          </mxGeometry>
        </mxCell>
        <mxCell id="HwZLsTvkrUzx8jBDkVq--157" value="" style="endArrow=none;html=1;rounded=0;exitX=0;exitY=0.5;exitDx=0;exitDy=0;entryX=1;entryY=1;entryDx=0;entryDy=0;" edge="1" parent="1" source="HwZLsTvkrUzx8jBDkVq--155" target="HwZLsTvkrUzx8jBDkVq--138">
          <mxGeometry width="50" height="50" relative="1" as="geometry">
            <mxPoint x="-835" y="-405" as="sourcePoint" />
            <mxPoint x="-765" y="-357" as="targetPoint" />
          </mxGeometry>
        </mxCell>
        <mxCell id="HwZLsTvkrUzx8jBDkVq--158" value="" style="endArrow=none;html=1;rounded=0;exitX=0;exitY=0.75;exitDx=0;exitDy=0;entryX=1;entryY=0.5;entryDx=0;entryDy=0;" edge="1" parent="1" source="HwZLsTvkrUzx8jBDkVq--138">
          <mxGeometry width="50" height="50" relative="1" as="geometry">
            <mxPoint x="-825" y="-395" as="sourcePoint" />
            <mxPoint x="-900" y="-402" as="targetPoint" />
          </mxGeometry>
        </mxCell>
        <mxCell id="HwZLsTvkrUzx8jBDkVq--159" value="extra_helemt" style="ellipse;whiteSpace=wrap;html=1;" vertex="1" parent="1">
          <mxGeometry x="-585" y="-360" width="85" height="30" as="geometry" />
        </mxCell>
        <mxCell id="HwZLsTvkrUzx8jBDkVq--160" value="seats_avail" style="ellipse;whiteSpace=wrap;html=1;" vertex="1" parent="1">
          <mxGeometry x="-970" y="-380" width="100" height="35" as="geometry" />
        </mxCell>
        <mxCell id="HwZLsTvkrUzx8jBDkVq--161" value="" style="endArrow=none;html=1;rounded=0;exitX=1;exitY=0.5;exitDx=0;exitDy=0;entryX=0;entryY=1;entryDx=0;entryDy=0;" edge="1" parent="1" source="HwZLsTvkrUzx8jBDkVq--160" target="HwZLsTvkrUzx8jBDkVq--138">
          <mxGeometry width="50" height="50" relative="1" as="geometry">
            <mxPoint x="-805" y="-345" as="sourcePoint" />
            <mxPoint x="-755" y="-395" as="targetPoint" />
          </mxGeometry>
        </mxCell>
        <mxCell id="HwZLsTvkrUzx8jBDkVq--162" value="" style="endArrow=none;html=1;rounded=0;entryX=0;entryY=0.5;entryDx=0;entryDy=0;exitX=0.75;exitY=1;exitDx=0;exitDy=0;" edge="1" parent="1" source="HwZLsTvkrUzx8jBDkVq--138" target="HwZLsTvkrUzx8jBDkVq--159">
          <mxGeometry width="50" height="50" relative="1" as="geometry">
            <mxPoint x="-805" y="-345" as="sourcePoint" />
            <mxPoint x="-755" y="-395" as="targetPoint" />
          </mxGeometry>
        </mxCell>
        <mxCell id="HwZLsTvkrUzx8jBDkVq--163" value="price" style="ellipse;whiteSpace=wrap;html=1;" vertex="1" parent="1">
          <mxGeometry x="-930" y="-340" width="70" height="30" as="geometry" />
        </mxCell>
        <mxCell id="HwZLsTvkrUzx8jBDkVq--164" value="description" style="ellipse;whiteSpace=wrap;html=1;" vertex="1" parent="1">
          <mxGeometry x="-620" y="-320" width="70" height="30" as="geometry" />
        </mxCell>
        <mxCell id="HwZLsTvkrUzx8jBDkVq--165" value="owner_id(fk)" style="ellipse;whiteSpace=wrap;html=1;" vertex="1" parent="1">
          <mxGeometry x="-745" y="-530" width="80" height="40" as="geometry" />
        </mxCell>
        <mxCell id="HwZLsTvkrUzx8jBDkVq--166" style="edgeStyle=orthogonalEdgeStyle;rounded=0;orthogonalLoop=1;jettySize=auto;html=1;exitX=0.5;exitY=1;exitDx=0;exitDy=0;" edge="1" parent="1" source="HwZLsTvkrUzx8jBDkVq--165" target="HwZLsTvkrUzx8jBDkVq--165">
          <mxGeometry relative="1" as="geometry" />
        </mxCell>
        <mxCell id="HwZLsTvkrUzx8jBDkVq--167" value="booking_id" style="ellipse;whiteSpace=wrap;html=1;" vertex="1" parent="1">
          <mxGeometry x="-970" y="-415" width="70" height="30" as="geometry" />
        </mxCell>
        <mxCell id="HwZLsTvkrUzx8jBDkVq--168" value="" style="endArrow=none;html=1;rounded=0;exitX=1;exitY=0.5;exitDx=0;exitDy=0;entryX=0.25;entryY=1;entryDx=0;entryDy=0;" edge="1" parent="1" source="HwZLsTvkrUzx8jBDkVq--163" target="HwZLsTvkrUzx8jBDkVq--138">
          <mxGeometry width="50" height="50" relative="1" as="geometry">
            <mxPoint x="-790" y="-300" as="sourcePoint" />
            <mxPoint x="-740" y="-350" as="targetPoint" />
          </mxGeometry>
        </mxCell>
        <mxCell id="HwZLsTvkrUzx8jBDkVq--169" value="" style="endArrow=none;html=1;rounded=0;entryX=0.669;entryY=0.993;entryDx=0;entryDy=0;entryPerimeter=0;exitX=0;exitY=0.278;exitDx=0;exitDy=0;exitPerimeter=0;" edge="1" parent="1" source="HwZLsTvkrUzx8jBDkVq--164" target="HwZLsTvkrUzx8jBDkVq--138">
          <mxGeometry width="50" height="50" relative="1" as="geometry">
            <mxPoint x="-780" y="-290" as="sourcePoint" />
            <mxPoint x="-730" y="-340" as="targetPoint" />
          </mxGeometry>
        </mxCell>
        <mxCell id="HwZLsTvkrUzx8jBDkVq--170" value="" style="endArrow=none;html=1;rounded=0;entryX=0.75;entryY=0;entryDx=0;entryDy=0;exitX=0.5;exitY=1;exitDx=0;exitDy=0;" edge="1" parent="1" source="HwZLsTvkrUzx8jBDkVq--165" target="HwZLsTvkrUzx8jBDkVq--138">
          <mxGeometry width="50" height="50" relative="1" as="geometry">
            <mxPoint x="-790" y="-300" as="sourcePoint" />
            <mxPoint x="-740" y="-350" as="targetPoint" />
          </mxGeometry>
        </mxCell>
        <mxCell id="HwZLsTvkrUzx8jBDkVq--171" value="Adds or deletes events" style="rhombus;whiteSpace=wrap;html=1;" vertex="1" parent="1">
          <mxGeometry x="1025" y="-66.25" width="110" height="110" as="geometry" />
        </mxCell>
        <mxCell id="HwZLsTvkrUzx8jBDkVq--172" value="" style="endArrow=classic;html=1;rounded=0;exitX=0.5;exitY=1;exitDx=0;exitDy=0;entryX=0.144;entryY=-0.087;entryDx=0;entryDy=0;entryPerimeter=0;" edge="1" parent="1" source="HwZLsTvkrUzx8jBDkVq--171" target="HwZLsTvkrUzx8jBDkVq--57">
          <mxGeometry width="50" height="50" relative="1" as="geometry">
            <mxPoint x="690" y="50" as="sourcePoint" />
            <mxPoint x="970" y="120" as="targetPoint" />
          </mxGeometry>
        </mxCell>
        <mxCell id="rP0GA_UCQ7L0hZzCrlnX-40" style="edgeStyle=none;rounded=0;orthogonalLoop=1;jettySize=auto;html=1;entryX=0;entryY=0.5;entryDx=0;entryDy=0;" edge="1" parent="1" source="HwZLsTvkrUzx8jBDkVq--174" target="HwZLsTvkrUzx8jBDkVq--185">
          <mxGeometry relative="1" as="geometry" />
        </mxCell>
        <mxCell id="HwZLsTvkrUzx8jBDkVq--174" value="ADMIN" style="rounded=0;whiteSpace=wrap;html=1;" vertex="1" parent="1">
          <mxGeometry x="-300" y="-45" width="70" height="45" as="geometry" />
        </mxCell>
        <mxCell id="HwZLsTvkrUzx8jBDkVq--175" value="&lt;u&gt;admin_id(pk)&lt;/u&gt;" style="ellipse;whiteSpace=wrap;html=1;" vertex="1" parent="1">
          <mxGeometry x="-395" y="-130" width="80" height="30" as="geometry" />
        </mxCell>
        <mxCell id="HwZLsTvkrUzx8jBDkVq--176" value="admin_name" style="ellipse;whiteSpace=wrap;html=1;" vertex="1" parent="1">
          <mxGeometry x="-430" y="-87.5" width="85" height="40" as="geometry" />
        </mxCell>
        <mxCell id="HwZLsTvkrUzx8jBDkVq--177" value="password" style="ellipse;whiteSpace=wrap;html=1;" vertex="1" parent="1">
          <mxGeometry x="-405" y="27.5" width="90" height="40" as="geometry" />
        </mxCell>
        <mxCell id="HwZLsTvkrUzx8jBDkVq--178" value="email" style="ellipse;whiteSpace=wrap;html=1;" vertex="1" parent="1">
          <mxGeometry x="-355" y="70" width="80" height="30" as="geometry" />
        </mxCell>
        <mxCell id="HwZLsTvkrUzx8jBDkVq--179" value="role" style="ellipse;whiteSpace=wrap;html=1;" vertex="1" parent="1">
          <mxGeometry x="-250" y="60" width="60" height="30" as="geometry" />
        </mxCell>
        <mxCell id="HwZLsTvkrUzx8jBDkVq--180" value="" style="endArrow=none;html=1;rounded=0;exitX=0.5;exitY=0;exitDx=0;exitDy=0;entryX=1;entryY=0.5;entryDx=0;entryDy=0;" edge="1" parent="1" source="HwZLsTvkrUzx8jBDkVq--174" target="HwZLsTvkrUzx8jBDkVq--175">
          <mxGeometry width="50" height="50" relative="1" as="geometry">
            <mxPoint x="-260" y="-130" as="sourcePoint" />
            <mxPoint x="-210" y="-180" as="targetPoint" />
          </mxGeometry>
        </mxCell>
        <mxCell id="HwZLsTvkrUzx8jBDkVq--181" value="" style="endArrow=none;html=1;rounded=0;entryX=1;entryY=0.5;entryDx=0;entryDy=0;exitX=0;exitY=1;exitDx=0;exitDy=0;" edge="1" parent="1" source="HwZLsTvkrUzx8jBDkVq--174" target="HwZLsTvkrUzx8jBDkVq--177">
          <mxGeometry width="50" height="50" relative="1" as="geometry">
            <mxPoint x="-250" y="-120" as="sourcePoint" />
            <mxPoint x="-200" y="-170" as="targetPoint" />
          </mxGeometry>
        </mxCell>
        <mxCell id="HwZLsTvkrUzx8jBDkVq--182" value="" style="endArrow=none;html=1;rounded=0;entryX=0;entryY=0;entryDx=0;entryDy=0;exitX=1;exitY=0.5;exitDx=0;exitDy=0;" edge="1" parent="1" source="HwZLsTvkrUzx8jBDkVq--176" target="HwZLsTvkrUzx8jBDkVq--174">
          <mxGeometry width="50" height="50" relative="1" as="geometry">
            <mxPoint x="-240" y="-110" as="sourcePoint" />
            <mxPoint x="-190" y="-160" as="targetPoint" />
          </mxGeometry>
        </mxCell>
        <mxCell id="HwZLsTvkrUzx8jBDkVq--183" value="" style="endArrow=none;html=1;rounded=0;exitX=0.25;exitY=1;exitDx=0;exitDy=0;entryX=1;entryY=0;entryDx=0;entryDy=0;" edge="1" parent="1" source="HwZLsTvkrUzx8jBDkVq--174" target="HwZLsTvkrUzx8jBDkVq--178">
          <mxGeometry width="50" height="50" relative="1" as="geometry">
            <mxPoint x="-260" y="-130" as="sourcePoint" />
            <mxPoint x="-210" y="-180" as="targetPoint" />
          </mxGeometry>
        </mxCell>
        <mxCell id="HwZLsTvkrUzx8jBDkVq--184" value="" style="endArrow=none;html=1;rounded=0;exitX=0.5;exitY=0;exitDx=0;exitDy=0;entryX=0.5;entryY=1;entryDx=0;entryDy=0;" edge="1" parent="1" source="HwZLsTvkrUzx8jBDkVq--179" target="HwZLsTvkrUzx8jBDkVq--174">
          <mxGeometry width="50" height="50" relative="1" as="geometry">
            <mxPoint x="-230" y="-100" as="sourcePoint" />
            <mxPoint x="-180" y="-150" as="targetPoint" />
          </mxGeometry>
        </mxCell>
        <mxCell id="HwZLsTvkrUzx8jBDkVq--185" value="Approves&lt;br&gt;or&lt;br&gt;Disapproves" style="rhombus;whiteSpace=wrap;html=1;" vertex="1" parent="1">
          <mxGeometry x="20" y="-58.75" width="100" height="102.5" as="geometry" />
        </mxCell>
        <mxCell id="HwZLsTvkrUzx8jBDkVq--188" value="" style="endArrow=classic;html=1;rounded=0;exitX=1;exitY=0.5;exitDx=0;exitDy=0;entryX=0;entryY=0;entryDx=0;entryDy=0;" edge="1" parent="1" source="HwZLsTvkrUzx8jBDkVq--185" target="HwZLsTvkrUzx8jBDkVq--57">
          <mxGeometry width="50" height="50" relative="1" as="geometry">
            <mxPoint x="30" y="210" as="sourcePoint" />
            <mxPoint x="620" y="30" as="targetPoint" />
            <Array as="points">
              <mxPoint x="860" y="-15" />
            </Array>
          </mxGeometry>
        </mxCell>
        <mxCell id="HwZLsTvkrUzx8jBDkVq--189" value="Adds&lt;br&gt;or&lt;br&gt;Deletes" style="rhombus;whiteSpace=wrap;html=1;" vertex="1" parent="1">
          <mxGeometry x="-140" y="-155" width="80" height="80" as="geometry" />
        </mxCell>
        <mxCell id="HwZLsTvkrUzx8jBDkVq--191" value="" style="endArrow=classic;html=1;rounded=0;exitX=0.5;exitY=1;exitDx=0;exitDy=0;entryX=0.667;entryY=0.1;entryDx=0;entryDy=0;entryPerimeter=0;" edge="1" parent="1" source="HwZLsTvkrUzx8jBDkVq--189" target="HwZLsTvkrUzx8jBDkVq--99">
          <mxGeometry width="50" height="50" relative="1" as="geometry">
            <mxPoint x="-100" y="20" as="sourcePoint" />
            <mxPoint x="-100" y="210" as="targetPoint" />
          </mxGeometry>
        </mxCell>
        <mxCell id="HwZLsTvkrUzx8jBDkVq--192" value="restaurant listing adapts dynamically" style="rhombus;whiteSpace=wrap;html=1;" vertex="1" parent="1">
          <mxGeometry x="150" y="185" width="150" height="140" as="geometry" />
        </mxCell>
        <mxCell id="HwZLsTvkrUzx8jBDkVq--194" value="" style="endArrow=classic;html=1;rounded=0;exitX=1;exitY=0.5;exitDx=0;exitDy=0;entryX=0;entryY=0.75;entryDx=0;entryDy=0;" edge="1" parent="1" source="HwZLsTvkrUzx8jBDkVq--192" target="HwZLsTvkrUzx8jBDkVq--83">
          <mxGeometry width="50" height="50" relative="1" as="geometry">
            <mxPoint x="320" y="255" as="sourcePoint" />
            <mxPoint x="390" y="340" as="targetPoint" />
          </mxGeometry>
        </mxCell>
        <mxCell id="HwZLsTvkrUzx8jBDkVq--195" value="" style="endArrow=classic;html=1;rounded=0;exitX=1;exitY=0.5;exitDx=0;exitDy=0;entryX=0.391;entryY=1.098;entryDx=0;entryDy=0;entryPerimeter=0;" edge="1" parent="1" source="HwZLsTvkrUzx8jBDkVq--185" target="HwZLsTvkrUzx8jBDkVq--35">
          <mxGeometry width="50" height="50" relative="1" as="geometry">
            <mxPoint x="360" y="20" as="sourcePoint" />
            <mxPoint x="410" y="-30" as="targetPoint" />
          </mxGeometry>
        </mxCell>
        <mxCell id="HwZLsTvkrUzx8jBDkVq--199" value="booking&lt;br&gt;&amp;nbsp;listing &lt;br&gt;adapts&lt;br&gt;&amp;nbsp;dynamically" style="rhombus;whiteSpace=wrap;html=1;" vertex="1" parent="1">
          <mxGeometry x="-865" y="-295" width="125" height="110" as="geometry" />
        </mxCell>
        <mxCell id="HwZLsTvkrUzx8jBDkVq--201" value="" style="endArrow=classic;html=1;rounded=0;entryX=0.5;entryY=1;entryDx=0;entryDy=0;exitX=0.5;exitY=0;exitDx=0;exitDy=0;" edge="1" parent="1" source="HwZLsTvkrUzx8jBDkVq--199" target="HwZLsTvkrUzx8jBDkVq--138">
          <mxGeometry width="50" height="50" relative="1" as="geometry">
            <mxPoint x="-530" y="-160" as="sourcePoint" />
            <mxPoint x="-480" y="-210" as="targetPoint" />
          </mxGeometry>
        </mxCell>
        <mxCell id="HwZLsTvkrUzx8jBDkVq--202" value="Views&lt;br&gt;or&lt;br&gt;Adds ride" style="rhombus;whiteSpace=wrap;html=1;" vertex="1" parent="1">
          <mxGeometry x="-655" y="-265" width="100" height="95" as="geometry" />
        </mxCell>
        <mxCell id="HwZLsTvkrUzx8jBDkVq--203" value="Books ride" style="rhombus;whiteSpace=wrap;html=1;" vertex="1" parent="1">
          <mxGeometry x="-695" y="-122.5" width="80" height="75" as="geometry" />
        </mxCell>
        <mxCell id="HwZLsTvkrUzx8jBDkVq--205" value="" style="endArrow=classic;html=1;rounded=0;entryX=0.587;entryY=1.01;entryDx=0;entryDy=0;entryPerimeter=0;exitX=0.5;exitY=0;exitDx=0;exitDy=0;" edge="1" parent="1" source="HwZLsTvkrUzx8jBDkVq--202" target="HwZLsTvkrUzx8jBDkVq--138">
          <mxGeometry width="50" height="50" relative="1" as="geometry">
            <mxPoint x="-600" y="-270" as="sourcePoint" />
            <mxPoint x="-540" y="-330" as="targetPoint" />
          </mxGeometry>
        </mxCell>
        <mxCell id="HwZLsTvkrUzx8jBDkVq--207" value="" style="endArrow=classic;html=1;rounded=0;entryX=1;entryY=0;entryDx=0;entryDy=0;exitX=0.5;exitY=1;exitDx=0;exitDy=0;" edge="1" parent="1" source="HwZLsTvkrUzx8jBDkVq--203" target="HwZLsTvkrUzx8jBDkVq--126">
          <mxGeometry width="50" height="50" relative="1" as="geometry">
            <mxPoint x="-590" y="-150" as="sourcePoint" />
            <mxPoint x="-540" y="-200" as="targetPoint" />
          </mxGeometry>
        </mxCell>
        <mxCell id="rP0GA_UCQ7L0hZzCrlnX-5" value="Text" style="text;strokeColor=none;align=center;fillColor=none;html=1;verticalAlign=middle;whiteSpace=wrap;rounded=0;" vertex="1" parent="1">
          <mxGeometry x="-240" y="-120" width="60" height="30" as="geometry" />
        </mxCell>
        <mxCell id="rP0GA_UCQ7L0hZzCrlnX-6" value="1" style="text;strokeColor=none;align=center;fillColor=none;html=1;verticalAlign=middle;whiteSpace=wrap;rounded=0;" vertex="1" parent="1">
          <mxGeometry x="-780" y="-115" width="10" height="20" as="geometry" />
        </mxCell>
        <mxCell id="rP0GA_UCQ7L0hZzCrlnX-9" value="N" style="text;strokeColor=none;align=center;fillColor=none;html=1;verticalAlign=middle;whiteSpace=wrap;rounded=0;" vertex="1" parent="1">
          <mxGeometry x="-807.5" y="-340" width="60" height="30" as="geometry" />
        </mxCell>
        <mxCell id="rP0GA_UCQ7L0hZzCrlnX-14" value="N" style="text;strokeColor=none;align=center;fillColor=none;html=1;verticalAlign=middle;whiteSpace=wrap;rounded=0;" vertex="1" parent="1">
          <mxGeometry x="-415" y="-305" width="60" height="30" as="geometry" />
        </mxCell>
        <mxCell id="rP0GA_UCQ7L0hZzCrlnX-16" value="1" style="text;strokeColor=none;align=center;fillColor=none;html=1;verticalAlign=middle;whiteSpace=wrap;rounded=0;" vertex="1" parent="1">
          <mxGeometry x="-675" y="-320" width="10" height="25" as="geometry" />
        </mxCell>
        <mxCell id="rP0GA_UCQ7L0hZzCrlnX-20" value="N" style="text;strokeColor=none;align=center;fillColor=none;html=1;verticalAlign=middle;whiteSpace=wrap;rounded=0;" vertex="1" parent="1">
          <mxGeometry x="-450" y="-220" width="60" height="30" as="geometry" />
        </mxCell>
        <mxCell id="rP0GA_UCQ7L0hZzCrlnX-21" value="1" style="text;strokeColor=none;align=center;fillColor=none;html=1;verticalAlign=middle;whiteSpace=wrap;rounded=0;" vertex="1" parent="1">
          <mxGeometry x="-710" y="-52.5" width="15" height="17.5" as="geometry" />
        </mxCell>
        <mxCell id="rP0GA_UCQ7L0hZzCrlnX-23" value="N" style="text;strokeColor=none;align=center;fillColor=none;html=1;verticalAlign=middle;whiteSpace=wrap;rounded=0;" vertex="1" parent="1">
          <mxGeometry x="-150" y="-250" width="60" height="30" as="geometry" />
        </mxCell>
        <mxCell id="rP0GA_UCQ7L0hZzCrlnX-25" value="1" style="text;strokeColor=none;align=center;fillColor=none;html=1;verticalAlign=middle;whiteSpace=wrap;rounded=0;" vertex="1" parent="1">
          <mxGeometry x="-90" y="70" width="10" height="25" as="geometry" />
        </mxCell>
        <mxCell id="rP0GA_UCQ7L0hZzCrlnX-30" value="1" style="text;strokeColor=none;align=center;fillColor=none;html=1;verticalAlign=middle;whiteSpace=wrap;rounded=0;" vertex="1" parent="1">
          <mxGeometry x="342.5" y="255" width="20" height="25" as="geometry" />
        </mxCell>
        <mxCell id="rP0GA_UCQ7L0hZzCrlnX-31" value="N" style="text;strokeColor=none;align=center;fillColor=none;html=1;verticalAlign=middle;whiteSpace=wrap;rounded=0;" vertex="1" parent="1">
          <mxGeometry x="55" y="227.5" width="60" height="30" as="geometry" />
        </mxCell>
        <mxCell id="rP0GA_UCQ7L0hZzCrlnX-33" value="1" style="text;strokeColor=none;align=center;fillColor=none;html=1;verticalAlign=middle;whiteSpace=wrap;rounded=0;" vertex="1" parent="1">
          <mxGeometry x="830" y="-140" width="20" height="25" as="geometry" />
        </mxCell>
        <mxCell id="rP0GA_UCQ7L0hZzCrlnX-34" value="N" style="text;strokeColor=none;align=center;fillColor=none;html=1;verticalAlign=middle;whiteSpace=wrap;rounded=0;" vertex="1" parent="1">
          <mxGeometry x="1090" y="80" width="60" height="30" as="geometry" />
        </mxCell>
        <mxCell id="rP0GA_UCQ7L0hZzCrlnX-35" value="1" style="text;strokeColor=none;align=center;fillColor=none;html=1;verticalAlign=middle;whiteSpace=wrap;rounded=0;" vertex="1" parent="1">
          <mxGeometry x="622.5" y="-45" width="20" height="25" as="geometry" />
        </mxCell>
        <mxCell id="rP0GA_UCQ7L0hZzCrlnX-37" value="N" style="text;strokeColor=none;align=center;fillColor=none;html=1;verticalAlign=middle;whiteSpace=wrap;rounded=0;" vertex="1" parent="1">
          <mxGeometry x="-160" y="-37.5" width="60" height="30" as="geometry" />
        </mxCell>
        <mxCell id="rP0GA_UCQ7L0hZzCrlnX-38" value="1" style="text;strokeColor=none;align=center;fillColor=none;html=1;verticalAlign=middle;whiteSpace=wrap;rounded=0;" vertex="1" parent="1">
          <mxGeometry x="290" y="-127.5" width="20" height="25" as="geometry" />
        </mxCell>
        <mxCell id="yWRtJUTTQhcei4ZcQlvI-1" value="" style="rounded=0;whiteSpace=wrap;html=1;fillColor=none;strokeWidth=5;" vertex="1" parent="1">
          <mxGeometry x="-1050" y="-540" width="2530" height="970" as="geometry" />
        </mxCell>
      </root>
    </mxGraphModel>
  </diagram>
</mxfile>
